<svg width="196" height="200" viewBox="0 0 196 200" fill="none" xmlns="http://www.w3.org/2000/svg">
<g clip-path="url(#clip0_114_169)">
<path d="M195.327 101.871C195.327 93.6771 194.662 87.6977 193.223 81.4969H99.6566V118.48H154.578C153.471 127.671 147.492 141.512 134.204 150.813L134.018 152.051L163.602 174.969L165.651 175.174C184.475 157.789 195.327 132.211 195.327 101.871Z" fill="#4285F4"/>
<path d="M99.6566 199.313C126.563 199.313 149.152 190.454 165.651 175.174L134.204 150.813C125.789 156.682 114.494 160.779 99.6566 160.779C73.3032 160.779 50.936 143.395 42.9627 119.366L41.794 119.466L11.0322 143.273L10.6299 144.391C27.0177 176.945 60.6795 199.313 99.6566 199.313Z" fill="#34A853"/>
<path d="M42.9627 119.366C40.8589 113.166 39.6413 106.521 39.6413 99.6565C39.6413 92.7908 40.8589 86.1473 42.852 79.9466L42.7963 78.626L11.649 54.4366L10.6299 54.9214C3.8757 68.4305 0.00012207 83.6008 0.00012207 99.6565C0.00012207 115.712 3.8757 130.882 10.6299 144.391L42.9627 119.366Z" fill="#FBBC05"/>
<path d="M99.6566 38.5336C118.37 38.5336 130.992 46.6168 138.19 53.3718L166.315 25.9107C149.042 9.85496 126.563 0 99.6566 0C60.6795 0 27.0177 22.3672 10.6299 54.9214L42.852 79.9466C50.936 55.9183 73.3032 38.5336 99.6566 38.5336Z" fill="#EB4335"/>
</g>
<defs>
<clipPath id="clip0_114_169">
<rect width="195.42" height="200" fill="white"/>
</clipPath>
</defs>
</svg>
